<?xml version="1.0" encoding="UTF-8" standalone="no"?>
<!-- Created with Inkscape (http://www.inkscape.org/) -->

<svg
   width="16"
   height="16"
   viewBox="0 0 16 16"
   version="1.1"
   id="svg1071"
   xml:space="preserve"
   xmlns:xlink="http://www.w3.org/1999/xlink"
   xmlns="http://www.w3.org/2000/svg"
   xmlns:svg="http://www.w3.org/2000/svg"><defs
     id="defs1068"><linearGradient
       id="linearGradient11254"><stop
         style="stop-color:#d4d7ec;stop-opacity:1;"
         offset="0"
         id="stop11250" /><stop
         style="stop-color:#ffffff;stop-opacity:1;"
         offset="1"
         id="stop11252" /></linearGradient><linearGradient
       id="linearGradient10002"><stop
         style="stop-color:#1d2250;stop-opacity:1;"
         offset="0"
         id="stop9998" /><stop
         style="stop-color:#505066;stop-opacity:1;"
         offset="0.5"
         id="stop10972" /><stop
         style="stop-color:#455268;stop-opacity:1;"
         offset="1"
         id="stop10000" /></linearGradient><linearGradient
       xlink:href="#linearGradient10002"
       id="linearGradient10004"
       x1="8"
       y1="14"
       x2="8"
       y2="2"
       gradientUnits="userSpaceOnUse" /><linearGradient
       xlink:href="#linearGradient11254"
       id="linearGradient11256"
       x1="9"
       y1="11.5"
       x2="9"
       y2="7.5"
       gradientUnits="userSpaceOnUse" /></defs><g
     id="layer1"><path
       id="rect3187"
       style="fill:url(#linearGradient11256);fill-opacity:1;stroke:url(#linearGradient10004);stroke-width:1;stroke-linecap:round;stroke-linejoin:miter;stroke-dasharray:none;stroke-opacity:1;opacity:1"
       d="m 3.7928932,2.7930443 a 0.99989319,0.99989319 89.993879 0 0 1.511e-4,1.4140625 L 5.0859375,5.5 H 4.5 a 1,1 135 0 0 -1,1 v 1 a 1,1 135 0 0 -1,1 1,1 45 0 0 1,1 v 0.414062 a 2.4142136,2.4142136 67.5 0 0 0.7071068,1.707107 l 1.5857864,1.585786 a 1.0000002,1.0000002 5.0648212e-6 0 0 1.4142137,0 0.99989283,0.99989283 89.993874 0 0 -1.512e-4,-1.414062 L 6.9140625,11.5 h 2.171875 l -0.2928932,0.292893 a 0.99999982,0.99999982 89.999995 0 0 10e-8,1.414214 0.99989319,0.99989319 179.99386 0 0 1.4140626,-1.52e-4 l 1.585786,-1.585786 A 2.4142136,2.4142136 112.5 0 0 12.5,9.914062 V 9.5 a 1,1 135 0 0 1,-1 1,1 45 0 0 -1,-1 v -1 a 1,1 45 0 0 -1,-1 h -0.585938 l 1.292893,-1.2928932 a 1.0000002,1.0000002 90.000005 0 0 0,-1.4142137 0.99989283,0.99989283 179.99387 0 0 -1.414062,1.512e-4 L 8.0859375,5.5 H 7.9140625 L 5.2071068,2.7930443 a 1,1 0 0 0 -1.4142136,0 z" /><rect
       style="opacity:1;fill:#505066;fill-opacity:1;stroke:none;stroke-width:1;stroke-linecap:square;stroke-linejoin:miter;stroke-dasharray:none;stroke-opacity:1"
       id="rect9530"
       width="1"
       height="2"
       x="6"
       y="7"
       ry="0.5" /><rect
       style="opacity:1;fill:#505066;fill-opacity:1;stroke:none;stroke-width:1;stroke-linecap:square;stroke-linejoin:miter;stroke-dasharray:none;stroke-opacity:1"
       id="rect9530-5"
       width="1"
       height="2"
       x="9"
       y="7"
       ry="0.5" /></g></svg>
