<?xml version="1.0" encoding="UTF-8" standalone="no"?>
<!-- Created with Inkscape (http://www.inkscape.org/) -->

<svg
   width="16"
   height="16"
   viewBox="0 0 16 16"
   version="1.1"
   id="svg1071"
   xml:space="preserve"
   inkscape:version="1.2.2 (b0a8486541, 2022-12-01)"
   sodipodi:docname="bitfellas.svg"
   xmlns:inkscape="http://www.inkscape.org/namespaces/inkscape"
   xmlns:sodipodi="http://sodipodi.sourceforge.net/DTD/sodipodi-0.dtd"
   xmlns:xlink="http://www.w3.org/1999/xlink"
   xmlns="http://www.w3.org/2000/svg"
   xmlns:svg="http://www.w3.org/2000/svg"><sodipodi:namedview
     id="namedview1073"
     pagecolor="#ffffff"
     bordercolor="#000000"
     borderopacity="0.25"
     inkscape:showpageshadow="2"
     inkscape:pageopacity="0.0"
     inkscape:pagecheckerboard="0"
     inkscape:deskcolor="#d1d1d1"
     inkscape:document-units="px"
     showgrid="true"
     inkscape:zoom="16.266606"
     inkscape:cx="4.2725569"
     inkscape:cy="-6.6393691"
     inkscape:window-width="1920"
     inkscape:window-height="1011"
     inkscape:window-x="0"
     inkscape:window-y="0"
     inkscape:window-maximized="1"
     inkscape:current-layer="layer1"
     showguides="false"><inkscape:grid
       type="xygrid"
       id="grid1204"
       empspacing="1"
       spacingx="1"
       spacingy="1" /></sodipodi:namedview><defs
     id="defs1068"><linearGradient
       inkscape:collect="always"
       id="linearGradient11254"><stop
         style="stop-color:#d4d7ec;stop-opacity:1;"
         offset="0"
         id="stop11250" /><stop
         style="stop-color:#ffffff;stop-opacity:1;"
         offset="1"
         id="stop11252" /></linearGradient><linearGradient
       inkscape:collect="always"
       id="linearGradient10002"><stop
         style="stop-color:#1d2250;stop-opacity:1;"
         offset="0"
         id="stop9998" /><stop
         style="stop-color:#505066;stop-opacity:1;"
         offset="0.5"
         id="stop10972" /><stop
         style="stop-color:#455268;stop-opacity:1;"
         offset="1"
         id="stop10000" /></linearGradient><inkscape:path-effect
       effect="fillet_chamfer"
       id="path-effect8076"
       is_visible="true"
       lpeversion="1"
       nodesatellites_param="F,0,0,1,0,1,0,1 @ F,0,0,1,0,1,0,1 @ F,0,0,1,0,0,0,1 @ F,0,1,1,0,1,0,1 @ F,0,0,1,0,0,0,1 @ F,0,0,1,0,1,0,1 @ F,0,0,1,0,1,0,1 @ F,0,0,1,0,0,0,1 @ F,0,1,1,0,1,0,1 @ F,0,0,1,0,1,0,1 @ F,0,0,1,0,1,0,1 @ F,0,0,1,0,0,0,1 @ F,0,0,1,0,0,0,1 @ F,0,0,1,0,1,0,1 @ F,0,0,1,0,1,0,1 @ F,0,1,1,0,1,0,1 @ F,0,0,1,0,0,0,1 @ F,0,0,1,0,1,0,1 @ F,0,0,1,0,1,0,1 @ F,0,0,1,0,0,0,1 @ F,0,1,1,0,1,0,1 @ F,0,0,1,0,0,0,1 @ F,0,0,1,0,1,0,1 @ F,0,0,1,0,1,0,1 @ F,0,0,1,0,0,0,1 @ F,0,0,1,0,0,0,1"
       unit="px"
       method="auto"
       mode="F"
       radius="1"
       chamfer_steps="1"
       flexible="false"
       use_knot_distance="true"
       apply_no_radius="true"
       apply_with_radius="true"
       only_selected="true"
       hide_knots="false" /><inkscape:path-effect
       effect="mirror_symmetry"
       start_point="8,2.09"
       end_point="8,13.91"
       center_point="12.5,7.9999997"
       id="path-effect8074"
       is_visible="true"
       lpeversion="1.2"
       lpesatellites=""
       mode="free"
       discard_orig_path="false"
       fuse_paths="true"
       oposite_fuse="false"
       split_items="false"
       split_open="false"
       link_styles="false" /><linearGradient
       inkscape:collect="always"
       xlink:href="#linearGradient10002"
       id="linearGradient10004"
       x1="8"
       y1="14"
       x2="8"
       y2="2"
       gradientUnits="userSpaceOnUse" /><linearGradient
       inkscape:collect="always"
       xlink:href="#linearGradient11254"
       id="linearGradient11256"
       x1="9"
       y1="11.5"
       x2="9"
       y2="7.5"
       gradientUnits="userSpaceOnUse" /></defs><g
     inkscape:label="Layer 1"
     inkscape:groupmode="layer"
     id="layer1"><path
       id="rect3187"
       style="fill:url(#linearGradient11256);fill-opacity:1;stroke:url(#linearGradient10004);stroke-width:1;stroke-linecap:round;stroke-linejoin:miter;stroke-dasharray:none;stroke-opacity:1;opacity:1"
       d="m 3.7928932,2.7930443 a 0.99989319,0.99989319 89.993879 0 0 1.511e-4,1.4140625 L 5.0859375,5.5 H 4.5 a 1,1 135 0 0 -1,1 v 1 a 1,1 135 0 0 -1,1 1,1 45 0 0 1,1 v 0.414062 a 2.4142136,2.4142136 67.5 0 0 0.7071068,1.707107 l 1.5857864,1.585786 a 1.0000002,1.0000002 5.0648212e-6 0 0 1.4142137,0 0.99989283,0.99989283 89.993874 0 0 -1.512e-4,-1.414062 L 6.9140625,11.5 h 2.171875 l -0.2928932,0.292893 a 0.99999982,0.99999982 89.999995 0 0 10e-8,1.414214 0.99989319,0.99989319 179.99386 0 0 1.4140626,-1.52e-4 l 1.585786,-1.585786 A 2.4142136,2.4142136 112.5 0 0 12.5,9.914062 V 9.5 a 1,1 135 0 0 1,-1 1,1 45 0 0 -1,-1 v -1 a 1,1 45 0 0 -1,-1 h -0.585938 l 1.292893,-1.2928932 a 1.0000002,1.0000002 90.000005 0 0 0,-1.4142137 0.99989283,0.99989283 179.99387 0 0 -1.414062,1.512e-4 L 8.0859375,5.5 H 7.9140625 L 5.2071068,2.7930443 a 1,1 0 0 0 -1.4142136,0 z"
       sodipodi:nodetypes="ccccccccccccccccccccccccccc"
       inkscape:path-effect="#path-effect8076"
       inkscape:original-d="M 4.5,2.0859375 3.0859375,3.5 l 2,2 H 3.5 v 2 h -1 v 2 h 1 v 1.414062 l 3,3 L 7.9140625,12.5 l -1,-1 h 2.171875 l -1,1 L 9.5,13.914062 l 3,-3 V 9.5 h 1 v -2 h -1 v -2 h -1.585938 l 2,-2 L 11.5,2.0859375 8.0859375,5.5 h -0.171875 z" /><rect
       style="opacity:1;fill:#505066;fill-opacity:1;stroke:none;stroke-width:1;stroke-linecap:square;stroke-linejoin:miter;stroke-dasharray:none;stroke-opacity:1"
       id="rect9530"
       width="1"
       height="2"
       x="6"
       y="7"
       ry="0.5" /><rect
       style="opacity:1;fill:#505066;fill-opacity:1;stroke:none;stroke-width:1;stroke-linecap:square;stroke-linejoin:miter;stroke-dasharray:none;stroke-opacity:1"
       id="rect9530-5"
       width="1"
       height="2"
       x="9"
       y="7"
       ry="0.5" /></g></svg>
