<?xml version="1.0" encoding="UTF-8" standalone="no"?>
<!-- Created with Inkscape (http://www.inkscape.org/) -->

<svg
   width="13"
   height="12"
   viewBox="0 0 13 12"
   version="1.1"
   id="svg12396"
   xml:space="preserve"
   xmlns:xlink="http://www.w3.org/1999/xlink"
   xmlns="http://www.w3.org/2000/svg"
   xmlns:svg="http://www.w3.org/2000/svg"><defs
     id="defs12393"><linearGradient
       id="linearGradient13050"><stop
         style="stop-color:#98d7fe;stop-opacity:1;"
         offset="0.2395906"
         id="stop20830" /><stop
         style="stop-color:#00adff;stop-opacity:1;"
         offset="0.42135125"
         id="stop13046" /><stop
         style="stop-color:#004a73;stop-opacity:1;"
         offset="1"
         id="stop13048" /></linearGradient><radialGradient
       xlink:href="#linearGradient13050"
       id="radialGradient15020"
       cx="8"
       cy="8.8076925"
       fx="8"
       fy="8.8076925"
       r="6"
       gradientTransform="matrix(1,0,0,1.0833333,0,-0.54166667)"
       gradientUnits="userSpaceOnUse" /></defs><g
     id="layer1"
     transform="rotate(90 0 0) translate(0 -13)"><path
       style="opacity:1;fill:url(#radialGradient15020);fill-opacity:1;stroke:#000000;stroke-width:2;stroke-linecap:square;stroke-dasharray:none;stroke-opacity:1"
       d="m 8,4 h 3 V 9 H 8 v 2 A 1,1 135 0 1 7,12 H 6.5 A 1.2071068,1.2071068 22.5 0 1 5.6464466,11.646447 L 1.3535534,7.3535534 A 1.2071068,1.2071068 67.5 0 1 1,6.5 1.2071068,1.2071068 112.5 0 1 1.3535534,5.6464466 L 5.6464466,1.3535534 A 1.2071068,1.2071068 157.5 0 1 6.5,1 H 7 a 1,1 45 0 1 1,1 z"
       id="path12948" /></g></svg>
