<svg xmlns="http://www.w3.org/2000/svg" xmlns:xlink="http://www.w3.org/1999/xlink" width="16" height="16" viewBox="0 0 32 32">
    <defs>
        <path id="a" d="M9 19c0-4.9 2.4-6.6 4-8 1.6-1.3 4-3.3 4-6.4C17 1.9 18.6 1 20 1c1.7 0 3 1.5 3 4 0 3-4.4 8.6-4.4 8.6S24 31 22 31h-7a6 6 0 0 1-6-6v-6"/>
        <path id="b" d="M25 13c1 0 3 .3 3.8 2 .8 1.7-.1 4-2.4 4H20c-2 0-3-1.2-3-3s2-3 4-3h4"/>
        <path id="c" d="M20 19h8c2 0 3 1 3 3s-1 3-3 3h-8c-2 0-3-1-3-3s1-3 3-3"/>
        <path id="d" d="M29 27c0-2-2-2-2-2h-8c-1 0-2 1-2 2 0 2 3 4 6 4 3.3 0 6-2 6-4"/>
    </defs>
    <path d="M0 18h5v10H0z"/>
    <use xlink:href="#a" fill="#b5dee7"/>
    <path d="M7 17c1 0 2 1 2 3v6c0 2-1 3-2 3-1.2 0-2-1-2-3v-6c0-2 1-3 2-3" stroke="#000" stroke-width="2" fill="#b5dee7"/>
    <ellipse ry="1.3" rx="1" cy="23" cx="7" fill="#fff"/>
    <path d="M10 27c6-2 4-12 8-14l2 6-7 12" fill="#6bb5c6"/>
    <path d="M11 29c4-1 6-13 6-13l4 14-5 1" fill="#397b94"/>
    <path d="M20 2c0 3 0 5-2 7s-4 5-3 5 4-2 4-2l4-4-1-7" fill="#fff"/>
    <path d="M11 24c-2 0-1-2-1-4s1-4 2-4c3 0 1 8-1 8z" fill="#fff"/>
    <use xlink:href="#a" stroke-linejoin="round" stroke="#000" stroke-width="2" fill="none"/>
    <use xlink:href="#b" fill="#b5dee7"/>
    <use xlink:href="#c" fill="#b5dee7"/>
    <use xlink:href="#d" fill="#b5dee7"/>
    <path d="M29 29l-3 1c0-2 0-3-2-4l4-1" fill="#fff"/>
    <path d="M29 16l-2 3c0-2-2-4-6-5l5-1" fill="#fff"/>
    <path d="M31 23l-2 1c0-2-2-3-5-4l6-1" fill="#fff"/>
    <path d="M20 14c0 2 2 4 6 4l-7 1-2-4" fill="#6bb5c6"/>
    <path d="M22 20c0 2 1 3 5 4l-9 1v-6" fill="#6bb5c6"/>
    <path d="M21 26c-1 2 1 3 4 5l-8-2 2-4" fill="#6bb5c6"/>
    <path d="M19 14c0 2 1 4 3 4l-3 1-2-4" fill="#397b94"/>
    <path d="M20 26c-2 0-1 3-1 3l-2-3" fill="#397b94"/>
    <path d="M20 20c-2 2 1 4 1 4l-3 1-1-5" fill="#397b94"/>
    <use xlink:href="#b" stroke-linejoin="round" stroke="#000" stroke-linecap="round" stroke-width="2" fill="none"/>
    <use xlink:href="#c" stroke="#000" stroke-width="2" fill="none"/>
    <use xlink:href="#d" stroke="#000" stroke-width="2" fill="none"/>
</svg>
