<svg xmlns="http://www.w3.org/2000/svg" xml:space="preserve" width="80" height="30">
  <path fill="#0f194d" d="M0 0h80v30H0z"/>
  <path fill="#fff" d="M5.777 17.487c-1.406-.012-2.499-.39-3.277-1.133l1.092-.97c.578.504 1.381.756 2.436.769.954 0 1.745-.29 2.398-.882.54-.479.854-1.058.929-1.738.138-1.234-.64-2.216-2.335-2.934l-.1-.05c-.854-.378-1.457-.706-1.796-1.008-.578-.529-.829-1.209-.753-2.04.075-.743.376-1.423.941-2.028a3.943 3.943 0 0 1 2.022-1.196 5.884 5.884 0 0 1 1.192-.138c.992 0 1.87.352 2.662 1.07l-1.067.995c-.54-.491-1.155-.743-1.833-.743-.264 0-.553.038-.867.1-.414.089-.778.29-1.104.605-.352.353-.54.756-.59 1.196-.038.479.125.857.477 1.146.238.214.728.479 1.456.781l.1.05c2.172.932 3.164 2.293 2.963 4.093-.113 1.046-.602 1.952-1.469 2.72-.979.87-2.121 1.298-3.427 1.298h-.05zm7.708-.982c-.753-.655-1.192-1.536-1.33-2.632-.189-1.675.138-3.627.954-5.88.464-1.273 1.167-2.243 2.109-2.935.929-.68 2.046-1.008 3.34-1.008 1.745 0 2.988.643 3.716 1.915l-1.256.73c-.54-.882-1.431-1.31-2.686-1.31-1.934 0-3.24.957-3.943 2.859-.753 2.04-1.03 3.803-.866 5.264.088.831.402 1.473.942 1.952.552.478 1.243.705 2.084.705 1.18 0 2.172-.428 2.975-1.272l1.005.73C19.386 16.87 17.98 17.5 16.31 17.5c-1.13-.013-2.071-.34-2.825-.995zm9.718-.012c-.74-.655-1.155-1.537-1.23-2.645-.164-2.116.15-4.017.941-5.717.615-1.323 1.419-2.343 2.436-3.048A5.628 5.628 0 0 1 28.727 4c1.13 0 2.021.34 2.649 1.007.64.68.942 1.612.929 2.809 0 .718-.088 1.31-.239 1.763l-.138.466-8.575 1.524-.012.251c-.05.58-.05 1.134-.013 1.688.063.819.352 1.46.892 1.914.527.479 1.218.705 2.084.705 1.23 0 2.285-.377 3.201-1.133l.88.856c-1.231 1.07-2.662 1.6-4.307 1.6-1.193.037-2.134-.303-2.875-.957zm.929-7.997a7.493 7.493 0 0 0-.465 1.36l-.1.378 7.307-1.297.025-.252.038-.655c.012-1.814-.804-2.72-2.461-2.72-1.909-.013-3.365 1.058-4.344 3.186zm15.731 8.689 1.557-8.84c.213-1.184.113-2.003-.289-2.443-.301-.328-.804-.504-1.52-.504-.087 0-.187 0-.288.012-1.28.076-2.586.479-3.917 1.21l-.15.075-1.846 10.49h-1.344l2.26-12.832h1.394c.012.1.05.189.113.251.088.126.226.177.402.177.088 0 .2-.025.314-.063 1.23-.39 2.21-.605 2.95-.655.125-.013.251-.013.364-.013 1.067 0 1.858.29 2.373.857.628.705.803 1.838.527 3.413l-1.57 8.865Zm5.034-.692c-.74-.655-1.155-1.537-1.23-2.645-.163-2.116.15-4.017.942-5.717.615-1.323 1.418-2.343 2.435-3.048A5.628 5.628 0 0 1 50.422 4c1.13 0 2.02.34 2.649 1.007.64.68.941 1.612.929 2.809 0 .718-.088 1.31-.239 1.763l-.138.466-8.575 1.524-.012.251c-.05.58-.05 1.134-.013 1.688.063.819.352 1.46.891 1.914.528.479 1.218.705 2.084.705 1.23 0 2.285-.377 3.202-1.133l.879.856c-1.23 1.07-2.662 1.6-4.307 1.6-1.192.037-2.134-.303-2.875-.957zm.93-7.997a7.493 7.493 0 0 0-.465 1.36l-.1.378 7.306-1.297.025-.252c.013-.214.026-.428.038-.655.013-1.814-.803-2.72-2.46-2.72-1.909-.013-3.365 1.058-4.345 3.186z"/>
  <path fill="#e63917" d="M57.812 4.013h3.913L57.913 26H54zm18.544 4.975c.012.717-.252 2.674-.78 5.871-.591 3.505-1.082 5.705-1.485 6.6-1.396 3.019-3.925 4.528-7.573 4.528h-6.215L64.039 4h6.177c4.039.013 6.077 1.676 6.14 4.988zm-5.838 11.397c.24-.537.617-2.34 1.133-5.372.49-2.916.742-4.682.755-5.283-.013-.626-.164-1.049-.453-1.292-.403-.345-1.196-.511-2.39-.511H67.31l-2.415 14.172h2.315c1.145 0 1.962-.166 2.44-.486.29-.218.58-.614.868-1.228z"/>
</svg>
