<svg xmlns="http://www.w3.org/2000/svg" xml:space="preserve" width="200" height="32">
  <path fill="#0f194d" d="M.133 0H200v31.967H.133z"/>
  <path fill="#fff" d="M37.56 23.63c-1.25 0-2.201-.366-2.851-1.099l1.217-1.081c.416.45 1.05.682 1.9.699h.017c.667 0 1.217-.2 1.684-.616.366-.333.583-.732.633-1.181.1-.882-.483-1.581-1.717-2.114l-.083-.033c-.7-.3-1.184-.566-1.467-.832-.484-.45-.7-1.032-.634-1.73.05-.633.317-1.199.8-1.731a3.51 3.51 0 0 1 1.717-1.015c1.334-.3 2.434 0 3.335.931l-1.167 1.099c-.567-.583-1.267-.782-2.068-.6a1.54 1.54 0 0 0-.716.4c-.234.233-.367.5-.4.782a.9.9 0 0 0 .3.749c.183.15.55.35 1.1.582l.083.034c1.784.765 2.584 1.88 2.417 3.378-.1.882-.516 1.647-1.25 2.296-.817.716-1.767 1.082-2.85 1.082zm6.918-10.684h1.5l-1.85 10.45h-1.5zm2.2-2.695a.831.831 0 0 0-.183-.716.817.817 0 0 0-.667-.3c-.283 0-.55.1-.783.3-.234.2-.367.433-.417.716-.05.283 0 .515.167.715.166.2.4.283.683.283.283 0 .533-.1.767-.283.233-.2.383-.45.433-.715zm9.486 2.729-2.3 12.98c-.134.782-.35 1.397-.634 1.813-.4.616-1.034 1.082-1.917 1.415-.517.2-1.05.283-1.617.283-.45 0-.867-.05-1.25-.167-.834-.25-1.384-.699-1.651-1.331-.2-.466-.25-1.098-.15-1.897l1.517-.1c-.067.632-.033 1.098.117 1.365.133.233.416.416.833.532a2.923 2.923 0 0 0 1.884-.066c.5-.184.834-.416 1-.666.134-.216.267-.6.367-1.182l.5-2.812a6.719 6.719 0 0 1-2.534.483c-1.95 0-3.034-.916-3.25-2.763-.167-1.43.066-3.028.716-4.792a5.423 5.423 0 0 1 1.75-2.43c.784-.615 1.634-.932 2.568-.932.784 0 1.517.167 2.217.483.184.083.3.017.334-.216zm-5.568 9.185c.917 0 1.767-.233 2.567-.682l1.134-6.456a3.93 3.93 0 0 0-2.45-.833c-.568 0-1.068.2-1.551.583-.484.4-.834.915-1.084 1.58-.567 1.532-.767 2.896-.633 4.094.15 1.149.817 1.714 2.017 1.714zM65 13.462c.533.583.7 1.531.466 2.813l-1.25 7.105h-1.5l1.25-7.105c.15-.866.083-1.448-.183-1.748-.217-.25-.65-.35-1.267-.333-.967.05-1.95.367-2.968.916l-1.467 8.27h-1.5l1.85-10.45h1.5c-.066.316.067.416.384.3.984-.317 1.767-.483 2.367-.517 1.067-.033 1.834.2 2.318.75zm9.735-.516h1.5l-1.85 10.45h-1.5zm2.2-2.695a.831.831 0 0 0-.182-.716.817.817 0 0 0-.667-.3c-.284 0-.55.1-.784.3-.233.2-.367.433-.417.716-.05.283 0 .515.167.715.167.2.4.283.684.283.283 0 .533-.1.766-.283.25-.2.4-.45.434-.715zm8.303 3.211c.533.583.7 1.531.467 2.813l-1.25 7.105h-1.5l1.25-7.105c.15-.866.083-1.448-.184-1.748-.217-.25-.65-.35-1.267-.333-.967.05-1.95.367-2.967.916l-1.467 8.27h-1.5l1.85-10.45h1.5c-.067.316.067.416.383.3.984-.317 1.768-.483 2.368-.517 1.067-.033 1.834.2 2.317.75zm11.319 9.935c-1.517-5.192-2.133-8.67-1.817-10.417h1.5c-.233 1.348.167 4.093 1.234 8.22l3.551-7.505h1.434l.933 7.489c2.501-4.144 3.868-6.873 4.102-8.22h1.5c-.317 1.763-2.117 5.224-5.435 10.416h-1.4l-.9-6.872-3.301 6.872h-1.4zm13.837-10.451h1.5l-1.85 10.45h-1.5zm2.2-2.695a.831.831 0 0 0-.183-.716.817.817 0 0 0-.666-.3c-.284 0-.55.1-.784.3-.233.2-.367.433-.417.716-.05.283 0 .515.167.715.167.2.4.283.683.283.284 0 .534-.1.767-.283.25-.2.384-.45.434-.715zm4.002 4.176-1.117 6.34c-.1.55-.05.932.15 1.132.217.216.633.3 1.267.233l-.1 1.464c-.2.017-.384.034-.567.034-.8 0-1.4-.217-1.817-.633-.484-.499-.634-1.248-.45-2.246l1.117-6.34h-1.867l.266-1.481h1.867l.667-3.81h1.5l-.666 3.81h2.017l-.267 1.48h-2zm7.968-1.697c1.017 0 1.768.333 2.251.982.5.649.65 1.53.45 2.63l-1.25 7.055h-1.5l1.25-7.056c.25-1.414-.25-2.13-1.484-2.13-.95 0-1.95.25-3 .732l-1.501 8.454h-1.5l2.884-16.341h1.5l-1.1 6.273c1.067-.4 2.067-.599 3-.599zm12.304 10.9c-1.25 0-2.201-.366-2.851-1.099l1.217-1.081c.417.45 1.05.682 1.9.699h.017c.667 0 1.217-.2 1.684-.616.366-.333.583-.732.633-1.181.1-.882-.483-1.581-1.717-2.114l-.083-.033c-.7-.3-1.184-.566-1.467-.832-.484-.45-.7-1.032-.634-1.73.05-.633.317-1.199.8-1.731a3.51 3.51 0 0 1 1.718-1.015c1.333-.3 2.433 0 3.334.931l-1.167 1.099c-.567-.583-1.267-.782-2.067-.6-.267.067-.517.2-.717.4-.234.233-.367.5-.4.782a.9.9 0 0 0 .3.749c.183.15.55.35 1.1.582l.083.034c1.784.765 2.584 1.88 2.418 3.378-.1.882-.517 1.647-1.25 2.296-.818.716-1.768 1.082-2.851 1.082zm6.635-.816c-.634-.549-1-1.264-1.1-2.163-.15-1.331.1-2.895.766-4.676.384-1.048.967-1.864 1.75-2.413.784-.566 1.701-.849 2.768-.849 1.534 0 2.6.6 3.184 1.781l-1.4.799c-.35-.75-1.034-1.115-2.034-1.115-1.384 0-2.334.682-2.834 2.047-.567 1.564-.8 2.895-.667 4.01.067.582.3 1.048.683 1.398.384.333.884.516 1.484.516.934 0 1.7-.366 2.3-1.082l1.101.815c-.984 1.165-2.2 1.748-3.668 1.748-.933 0-1.717-.283-2.333-.816zm8.702-.016c-.617-.55-.95-1.265-1.017-2.18-.134-1.68.133-3.212.75-4.56.5-1.081 1.184-1.93 2.017-2.513a4.77 4.77 0 0 1 2.784-.881c.95 0 1.684.282 2.217.832.534.565.784 1.347.784 2.33 0 .565-.067 1.048-.2 1.43l-.167.533-6.668 1.165a8.219 8.219 0 0 0 0 1.281c.05.582.267 1.048.633 1.381.384.333.884.516 1.484.516.984 0 1.834-.333 2.517-.982l.984.949c-1.034.998-2.284 1.497-3.751 1.497-.95.034-1.75-.25-2.367-.798zm1.117-6.34c-.134.3-.25.632-.35 1.015l5.234-.932c.017-.15.034-.316.034-.483.016-1.281-.567-1.93-1.718-1.93-1.433 0-2.484.782-3.2 2.33zm15.27-2.996c.534.583.7 1.531.467 2.813l-1.25 7.105h-1.5l1.25-7.105c.15-.866.083-1.448-.184-1.748-.217-.25-.65-.35-1.267-.333-.967.05-1.95.367-2.967.916l-1.467 8.27h-1.5l1.85-10.45h1.5c-.066.316.067.416.384.3.983-.317 1.767-.483 2.367-.517 1.05-.033 1.817.2 2.317.75zm3.001 9.336c-.617-.55-.95-1.265-1.017-2.18-.133-1.68.133-3.212.75-4.56.5-1.081 1.184-1.93 2.017-2.513a4.77 4.77 0 0 1 2.784-.881c.95 0 1.684.282 2.218.832.533.565.783 1.347.783 2.33 0 .565-.067 1.048-.2 1.43l-.167.533-6.668 1.165a8.219 8.219 0 0 0 0 1.281c.05.582.267 1.048.633 1.381.384.333.884.516 1.484.516.984 0 1.834-.333 2.517-.982l.984.949c-1.034.998-2.284 1.497-3.75 1.497-.951.034-1.751-.25-2.368-.798zm1.117-6.34c-.134.3-.25.632-.35 1.015l5.234-.932c.017-.15.034-.316.034-.483.016-1.281-.567-1.93-1.717-1.93-1.417 0-2.484.782-3.201 2.33zm9.669-8.687h1.5l-2.75 15.626h-1.5zm1.351 15.626 2.7-15.626h4.118c2.767 0 4.167 1.082 4.2 3.245 0 .5-.2 1.997-.616 4.46-.45 2.679-.817 4.31-1.1 4.925-.484 1.049-1.15 1.798-1.968 2.28-.816.466-1.883.716-3.2.716zm1.766-1.481h2.651c1.05 0 1.85-.167 2.384-.483.433-.266.817-.732 1.15-1.43.217-.45.534-1.915.967-4.394.417-2.38.617-3.827.617-4.31-.017-.682-.2-1.181-.567-1.498-.45-.366-1.25-.549-2.367-.549h-2.6z"/>
  <path fill="#e63917" d="M21.406 32H0V0h32v21.417C32 27.267 27.252 32 21.406 32Z"/>
  <path fill="#fff" d="M4.601 32 9.552 4H6.668L1.734 31.884 1.717 32zM20.905 4H13.47L8.619 32h7.502c2.35 0 4.284-.432 5.751-1.28 1.467-.847 2.65-2.226 3.534-4.087.517-1.08 1.184-4.038 1.984-8.79.767-4.454 1.117-7.063 1.117-7.977C28.44 5.977 25.89 4 20.905 4zm-.116 24.31c-.917.566-2.334.848-4.185.848H12.02l3.867-22.35h4.568c1.967 0 3.368.333 4.151.964.634.532.967 1.396.984 2.592.016.864-.35 3.44-1.084 7.66-.75 4.371-1.334 6.98-1.717 7.778-.567 1.213-1.25 2.06-2 2.509z"/>
</svg>
