<svg xmlns="http://www.w3.org/2000/svg" xmlns:xlink="http://www.w3.org/1999/xlink" width="400" height="400"><rect width="100%" height="100%" fill="#396ba5"/><g id="b"><ellipse cx="65.5" cy="98" rx="30" ry="10" transform="rotate(-9.2)" stroke-width="3" stroke="#315a8c" fill="none"/><g fill="#315a8c"><path id="a" d="M71 69.6h-1c-1.8.3-3.2 1-3 1.7 0 .6 1.1 1 2.6 1l1 5.8-1.5.2 2.7 19 5-.8-2.7-19-1.9.3-1-5.8c1.4-.3 2.3-1 2.2-1.5 0-.6-1-1-2.4-.9"/><path d="M129.3 41.8c-.3 0-.6.4-1 1.3-7.3 24-49.3 33.4-83 37.6-.6-1-3-2.3-3.7-1.6-.8.8.5 2 .7 3.3 0 1-.5 3 .6 3 1 0 2.2-1.3 2.6-2.5 60.4-7.3 81.7-11.2 89.2 2 7 12.7-1.3-43.3-5.4-43.1m-.1 8.4l1.2 6.1c-11.8 9.3-33.2 14.2-33.2 14.2s21.8-5.9 32-20.4"/><use height="100%" width="100%" transform="translate(9 -1.5)" xlink:href="#a"/><use height="100%" width="100%" transform="translate(18 -3)" xlink:href="#a"/></g></g><use xlink:href="#b" transform="translate(210 66)" width="100%" height="100%"/><use xlink:href="#b" transform="translate(76 196)" width="100%" height="100%"/></svg>